<?xml version="1.0" standalone="no"?>
<!DOCTYPE svg PUBLIC "-//W3C//DTD SVG 20010904//EN"
 "http://www.w3.org/TR/2001/REC-SVG-20010904/DTD/svg10.dtd">
<svg version="1.0" xmlns="http://www.w3.org/2000/svg"
 width="225.000000pt" height="225.000000pt" viewBox="0 0 225.000000 225.000000"
 preserveAspectRatio="xMidYMid meet">

<g transform="translate(0.000000,225.000000) scale(0.100000,-0.100000)"
fill="#fff" stroke="none">
<path d="M863 2239 c-230 -38 -429 -232 -478 -464 -10 -50 -15 -138 -15 -307
l0 -238 35 0 35 0 0 248 c0 275 7 320 63 425 46 87 142 179 230 221 216 102
440 64 607 -104 92 -92 132 -178 155 -332 5 -35 9 -38 37 -38 l31 0 -6 68
c-29 332 -355 578 -694 521z"/>
<path d="M900 2103 c-186 -31 -340 -178 -379 -361 -6 -30 -11 -152 -11 -282
l0 -230 598 -2 597 -3 3 -32 3 -33 -776 0 -776 0 3 33 3 32 67 3 68 3 0 34 0
35 -78 0 c-73 0 -80 -2 -105 -28 -25 -26 -27 -35 -27 -105 l0 -77 810 0 810 0
0 -120 0 -120 30 0 30 0 0 198 0 198 -28 27 -28 27 -567 0 -567 0 0 203 c0
225 9 276 62 359 40 63 89 105 168 142 59 28 74 31 160 31 82 0 103 -4 152
-27 118 -55 212 -180 227 -300 6 -52 7 -53 40 -56 l34 -3 -7 63 c-13 132 -110
274 -232 340 -83 45 -197 66 -284 51z"/>
<path d="M90 650 l0 -370 35 0 35 0 0 370 0 370 -35 0 -35 0 0 -370z"/>
<path d="M435 824 c-67 -35 -95 -82 -95 -159 0 -79 51 -144 131 -165 26 -7
190 -10 487 -8 447 3 447 3 484 26 94 58 112 178 40 264 -49 58 -48 58 -554
58 -400 0 -467 -2 -493 -16z m976 -67 c56 -38 65 -109 20 -159 l-29 -33 -456
-3 c-509 -3 -504 -4 -532 65 -25 59 1 115 66 142 16 6 185 9 465 8 402 -2 442
-4 466 -20z"/>
<path d="M550 665 c0 -32 2 -35 30 -35 28 0 30 3 30 35 0 32 -2 35 -30 35 -28
0 -30 -3 -30 -35z"/>
<path d="M690 665 c0 -32 2 -35 30 -35 28 0 30 3 30 35 0 32 -2 35 -30 35 -28
0 -30 -3 -30 -35z"/>
<path d="M830 665 c0 -32 2 -35 30 -35 28 0 30 3 30 35 0 32 -2 35 -30 35 -28
0 -30 -3 -30 -35z"/>
<path d="M970 664 c0 -34 1 -35 33 -32 28 3 32 7 35 36 3 31 2 32 -32 32 -35
0 -36 -1 -36 -36z"/>
<path d="M1110 664 c0 -34 1 -35 33 -32 28 3 32 7 35 36 3 31 2 32 -32 32 -35
0 -36 -1 -36 -36z"/>
<path d="M1250 664 c0 -34 1 -35 33 -32 28 3 32 7 35 36 3 31 2 32 -32 32 -35
0 -36 -1 -36 -36z"/>
<path d="M1502 425 c-147 -280 -182 -353 -182 -385 l0 -40 420 0 420 0 0 40
c0 33 -34 104 -182 385 l-181 345 -57 0 -56 0 -182 -345z m419 -36 l165 -314
-173 -3 c-95 -1 -251 -1 -346 0 l-173 3 156 295 c192 364 179 342 193 337 7
-2 87 -145 178 -318z"/>
<path d="M1710 405 l0 -125 30 0 30 0 0 125 0 125 -30 0 -30 0 0 -125z"/>
<path d="M1710 175 c0 -32 2 -35 30 -35 28 0 30 3 30 35 0 32 -2 35 -30 35
-28 0 -30 -3 -30 -35z"/>
<path d="M90 133 c0 -70 2 -79 27 -105 l27 -28 553 0 553 0 0 35 0 35 -542 2
-543 3 -3 33 -3 32 545 0 546 0 0 35 0 35 -580 0 -580 0 0 -77z"/>
</g>
</svg>
