<?xml version="1.0" standalone="no"?>
<!DOCTYPE svg PUBLIC "-//W3C//DTD SVG 20010904//EN"
 "http://www.w3.org/TR/2001/REC-SVG-20010904/DTD/svg10.dtd">
<svg version="1.0" xmlns="http://www.w3.org/2000/svg"
 width="503.000000pt" height="460.000000pt" viewBox="0 0 503.000000 460.000000"
 preserveAspectRatio="xMidYMid meet">

<g transform="translate(0.000000,460.000000) scale(0.100000,-0.100000)"
fill="#fff" stroke="none">
<path d="M1334 4591 c-257 -41 -491 -255 -560 -511 -21 -79 -24 -224 -5 -300
7 -30 33 -98 58 -150 38 -79 59 -108 132 -180 71 -72 102 -95 181 -134 156
-76 305 -94 457 -52 l52 14 165 -284 c91 -156 166 -287 166 -290 0 -3 -22 -30
-49 -60 -26 -30 -61 -80 -76 -110 -15 -30 -33 -53 -39 -51 -6 2 -216 59 -466
127 -250 68 -457 125 -459 126 -2 2 -7 25 -12 51 -28 149 -152 280 -306 320
-246 64 -521 -202 -463 -449 48 -204 247 -348 437 -318 75 13 158 57 219 118
30 30 54 58 54 63 0 5 10 9 23 8 12 0 231 -58 486 -127 l465 -127 16 -65 c9
-36 27 -85 40 -110 l23 -44 -23 -16 c-53 -36 -615 -350 -626 -350 -7 0 -25 16
-40 35 -35 46 -133 119 -215 160 -92 47 -178 67 -284 67 -184 0 -328 -63 -471
-207 -74 -73 -99 -107 -132 -175 -54 -110 -72 -183 -72 -295 0 -112 18 -185
72 -295 34 -69 58 -102 132 -176 74 -74 107 -98 176 -132 110 -54 183 -72 295
-72 110 0 185 18 290 69 142 70 250 180 320 326 23 50 48 111 54 137 16 69 14
229 -5 304 -9 36 -15 67 -12 69 2 3 157 91 343 196 l339 191 66 -35 c87 -46
130 -59 225 -66 l80 -6 143 -523 143 -523 -55 -54 c-168 -165 -164 -390 9
-554 171 -162 414 -141 564 49 62 78 84 148 79 250 -3 73 -9 94 -37 147 -64
119 -193 212 -308 221 l-53 4 -19 67 c-11 36 -77 275 -146 531 l-127 465 34
25 c53 39 117 110 155 172 l36 58 430 -2 430 -3 14 -54 c58 -227 269 -436 501
-496 73 -18 213 -21 292 -5 30 7 98 32 150 57 82 39 107 58 185 137 143 144
205 288 205 472 0 182 -67 333 -209 474 -137 136 -286 200 -463 200 -117 0
-176 -14 -283 -65 -185 -89 -322 -250 -375 -440 l-17 -60 -411 -3 -411 -2 -6
37 c-4 21 -13 58 -21 83 l-14 45 384 384 384 384 34 -16 c149 -70 309 -36 432
92 82 87 111 154 111 261 0 77 -3 92 -33 153 -43 87 -117 161 -201 201 -59 28
-76 31 -156 31 -79 0 -97 -3 -150 -29 -77 -38 -163 -124 -201 -201 -26 -54
-29 -70 -29 -155 0 -77 4 -104 23 -144 l23 -50 -363 -363 c-199 -200 -367
-363 -373 -363 -5 0 -30 16 -54 36 -102 80 -240 123 -359 109 -37 -4 -77 -8
-90 -9 -20 -1 -45 36 -186 279 l-164 280 62 60 c265 259 288 625 57 911 -82
101 -216 191 -341 228 -66 20 -205 28 -276 17z m249 -221 c78 -24 175 -86 217
-140 16 -21 44 -69 62 -106 28 -60 32 -81 36 -175 4 -89 1 -119 -16 -176 -49
-159 -166 -271 -323 -308 -274 -64 -523 80 -584 337 -60 255 80 509 315 572
82 22 215 20 293 -4z m2285 -615 c50 -30 75 -92 70 -170 -4 -69 -21 -101 -72
-139 -42 -32 -158 -34 -210 -4 -102 60 -110 239 -14 311 51 38 163 39 226 2z
m-3282 -866 c75 -36 108 -121 84 -217 -27 -116 -176 -169 -285 -102 -71 44
-96 163 -52 250 41 83 159 115 253 69z m3834 -200 c229 -36 383 -223 383 -464
0 -248 -157 -432 -399 -466 -232 -33 -439 87 -517 300 -29 80 -29 252 0 332
81 220 291 337 533 298z m-1959 -96 c56 -25 110 -80 140 -141 33 -68 33 -216
0 -284 -52 -107 -135 -159 -266 -166 -134 -7 -231 43 -290 149 -28 50 -30 61
-30 159 0 91 3 111 24 150 40 77 96 123 181 151 46 15 191 4 241 -18z m-1668
-858 c208 -44 346 -203 363 -420 26 -312 -233 -552 -545 -506 -265 40 -430
268 -391 543 27 191 167 342 353 383 82 18 137 18 220 0z m2189 -1161 c59 -30
95 -112 83 -193 -15 -105 -82 -156 -196 -149 -73 4 -104 20 -143 72 -17 22
-21 42 -21 106 0 84 12 112 67 153 49 36 149 41 210 11z"/>
</g>
</svg>
