<?xml version="1.0" standalone="no"?>
<!DOCTYPE svg PUBLIC "-//W3C//DTD SVG 20010904//EN"
 "http://www.w3.org/TR/2001/REC-SVG-20010904/DTD/svg10.dtd">
<svg version="1.0" xmlns="http://www.w3.org/2000/svg"
 width="225.000000pt" height="225.000000pt" viewBox="0 0 225.000000 225.000000"
 preserveAspectRatio="xMidYMid meet">

<g transform="translate(0.000000,225.000000) scale(0.100000,-0.100000)"
fill="#fff" stroke="none">
<path d="M905 2194 c-167 -41 -318 -160 -394 -314 -114 -231 -79 -489 91 -675
33 -36 59 -67 57 -68 -2 -1 -47 -23 -99 -48 -231 -113 -418 -312 -460 -491 -5
-24 -10 -166 -10 -315 l0 -273 600 0 600 0 0 35 0 35 -565 0 -566 0 3 258 3
258 39 79 c29 59 59 99 120 160 131 132 248 201 475 281 10 3 -4 17 -38 40
-233 157 -312 431 -196 682 62 134 214 259 355 291 66 15 197 13 265 -4 134
-35 268 -140 332 -261 129 -243 56 -543 -172 -699 -30 -21 -55 -40 -55 -41 0
-1 26 -10 58 -19 72 -21 208 -84 269 -126 l47 -31 18 22 c10 12 18 26 18 30 0
12 -87 65 -175 106 -44 21 -81 38 -82 39 -2 1 20 26 48 56 61 65 133 209 148
293 24 134 2 279 -61 399 -42 81 -164 203 -245 245 -127 67 -293 88 -428 56z"/>
<path d="M1656 800 c-65 -17 -155 -71 -198 -119 -181 -204 -124 -514 119 -635
197 -99 446 -11 541 192 24 51 27 68 27 172 0 110 -1 118 -32 176 -42 80 -134
165 -210 194 -66 25 -187 34 -247 20z m235 -92 c207 -95 261 -355 108 -522
-73 -80 -141 -111 -244 -111 -65 1 -91 5 -137 27 -232 107 -267 409 -66 571
89 71 230 86 339 35z"/>
<path d="M1720 515 l0 -75 -75 0 -75 0 0 -35 0 -35 75 0 75 0 0 -73 0 -73 28
2 c15 1 30 3 35 3 4 1 7 33 7 71 l0 70 70 0 70 0 0 35 0 35 -70 0 -70 0 0 75
0 75 -35 0 -35 0 0 -75z"/>
</g>
</svg>
